HIERARCHY
ROOT Hips
{
    OFFSET 0.0 0.0 0.0
    CHANNELS 6 Xposition Yposition Zposition Zrotation Xrotation Yrotation
    JOINT LeftHipJoint
    {
        OFFSET 0.1 0.0 0.0
        CHANNELS 3 Zrotation Xrotation Yrotation
        JOINT LeftUpLeg
        {
            OFFSET 122.03969590009191 0.0 0.0
            CHANNELS 3 Zrotation Xrotation Yrotation
            JOINT LeftLeg
            {
                OFFSET 0.0 0.0 -410.05438075225743
                CHANNELS 3 Zrotation Xrotation Yrotation
                JOINT LeftFoot
                {
                    OFFSET 0.0 0.0 -397.6927562078932
                    CHANNELS 3 Zrotation Xrotation Yrotation
                    End Site
                    {
                        OFFSET 0.0 -0.1 0.0
                    }
                }
            }
        }
    }
    JOINT LowerBack
    {
        OFFSET 0.0 0.0 0.1
        CHANNELS 3 Zrotation Xrotation Yrotation
        JOINT Spine
        {
            OFFSET 0.0 0.0 221.26637857701112
            CHANNELS 3 Zrotation Xrotation Yrotation
            JOINT Spine1
            {
                OFFSET 0.0 0.0 255.2644462307818
                CHANNELS 3 Zrotation Xrotation Yrotation
                JOINT LeftShoulder
                {
                    OFFSET 0.1 0.0 0.0
                    CHANNELS 3 Zrotation Xrotation Yrotation
                    JOINT LeftArm
                    {
                        OFFSET 142.78209584459512 0.0 0.0
                        CHANNELS 3 Zrotation Xrotation Yrotation
                        JOINT LeftForeArm
                        {
                            OFFSET 261.53223457765125 0.0 0.0
                            CHANNELS 3 Zrotation Xrotation Yrotation
                            JOINT LeftHand
                            {
                                OFFSET 238.8250620722327 0.0 0.0
                                CHANNELS 3 Zrotation Xrotation Yrotation
                                End Site
                                {
                                    OFFSET 0.1 0.0 0.0
                                }
                            }
                        }
                    }
                }
                JOINT Neck
                {
                    OFFSET 0.0 0.0 0.1
                    CHANNELS 3 Zrotation Xrotation Yrotation
                    JOINT Neck1
                    {
                        OFFSET 0.0 0.0 109.29055950588518
                        CHANNELS 3 Zrotation Xrotation Yrotation
                        End Site
                        {
                            OFFSET 0.0 0.0 116.43127221102539
                        }
                    }
                }
                JOINT RightShoulder
                {
                    OFFSET -0.1 0.0 0.0
                    CHANNELS 3 Zrotation Xrotation Yrotation
                    JOINT RightArm
                    {
                        OFFSET -142.78209584459512 0.0 0.0
                        CHANNELS 3 Zrotation Xrotation Yrotation
                        JOINT RightForeArm
                        {
                            OFFSET -261.53223457765125 0.0 0.0
                            CHANNELS 3 Zrotation Xrotation Yrotation
                            JOINT RightHand
                            {
                                OFFSET -238.8250620722327 0.0 0.0
                                CHANNELS 3 Zrotation Xrotation Yrotation
                                End Site
                                {
                                    OFFSET -0.1 0.0 0.0
                                }
                            }
                        }
                    }
                }
            }
        }
    }
    JOINT RightHipJoint
    {
        OFFSET -0.1 0.0 0.0
        CHANNELS 3 Zrotation Xrotation Yrotation
        JOINT RightUpLeg
        {
            OFFSET -122.03969590009191 0.0 0.0
            CHANNELS 3 Zrotation Xrotation Yrotation
            JOINT RightLeg
            {
                OFFSET 0.0 0.0 -410.05438075225743
                CHANNELS 3 Zrotation Xrotation Yrotation
                JOINT RightFoot
                {
                    OFFSET 0.0 0.0 -397.6927562078932
                    CHANNELS 3 Zrotation Xrotation Yrotation
                    End Site
                    {
                        OFFSET 0.0 -0.1 0.0
                    }
                }
            }
        }
    }
}
MOTION
Frames: 8
Frame Time: 0.03333333333333333
0.0 0.0 821.7663820892717 34.97714180167957 -5.714684508219155 5.386021646241121 -6.3611093629270335e-15 0.0 0.0 -0.018097968519249937 -7.279381313117337 -1.6414814363668553 -0.7569356054192361 27.185325501779115 2.399553066538165 0.0 0.0 7.951386703658792e-16 -6.3611093629270335e-15 0.0 0.0 -0.017626426436707757 -5.9671656191244775 8.86286933964308 5.198587018206048 -2.780122013551611e-15 1.2621025068574975e-16 1.3793457181406746e-32 1.987846675914698e-15 -7.951386703658792e-16 6.136522823709866 9.690281794958606 67.2811394184293 -17.68366391224013 6.041079379173138e-15 2.549128141559762e-15 -3.1805546814635168e-15 4.4139062980501586e-32 -1.5902773407317584e-15 1.3793457181406746e-32 1.987846675914698e-15 -7.951386703658792e-16 -20.704333373813036 0.8113601344946121 -10.354116602317646 1.3793457181406746e-32 1.987846675914698e-15 -7.951386703658792e-16 68.95032717009543 -52.77955280966218 34.64288027427291 74.64374986737454 3.0361909853753416e-15 -1.831270991923204e-14 1.1927080055488188e-15 0.0 0.0 -6.3611093629270335e-15 0.0 0.0 -0.0031959658035814954 0.001216298455140769 -1.0395597376050953 -0.3653644130383679 22.801724957867414 -0.48101796921316353 0.0 0.0 7.951386703658792e-16
0.0 0.0 821.7663820892717 35.02399243514756 -5.7214330985004365 5.265289324819675 -6.3611093629270335e-15 1.987846675914698e-16 1.1034765745125397e-32 -0.0023798618131015813 -7.2644458310831395 -1.5017116153640677 -0.7487388748595745 27.182167925305603 2.325917831427301 0.0 0.0 0.0 -6.3611093629270335e-15 1.987846675914698e-16 1.1034765745125397e-32 -0.004773405625533538 -5.975510281015404 8.995910520738578 5.2173133880061515 -1.9857866795367612e-15 9.047469435969307e-17 0.0 0.0 0.0 5.979372492614552 9.718653330551483 67.31171870765526 -17.569263184921887 4.857367248814827e-16 -3.1432448068645403e-15 0.0 0.0 1.5902773407317584e-15 0.0 0.0 0.0 -20.858946533803472 0.7883412817463854 -10.499523769594262 0.0 0.0 0.0 68.01930745302151 -51.921118711659474 33.819970426669165 75.26555607851158 -8.397867874705445e-15 -9.589729400383169e-15 1.5902773407317584e-15 0.0 0.0 -6.3611093629270335e-15 1.987846675914698e-16 1.1034765745125397e-32 -0.00318922187394366 0.0033039974477882816 -0.9754048757275078 -0.3905242268402783 22.82258953923549 -0.45107362145955354 0.0 0.0 0.0
0.0 0.0 821.7663820892717 35.056147903585014 -5.6863842954166826 5.210652638674971 0.0 0.0 0.0 0.009851535780224751 -7.33046027999239 -1.475398308152932 -0.7880047465429573 27.279510050090252 2.261257798081485 0.0 0.0 -7.951386703658791e-16 0.0 0.0 0.0 0.005279937682853576 -6.0357654736407556 9.071591510342135 5.237825708689145 -3.068236536413595e-15 2.528252792819018e-15 0.0 0.0 0.0 5.9641374243534955 9.775905635812462 67.27503956179804 -17.6111561703573 -6.518731551523458e-15 -9.860648842178278e-15 -3.1805546814635168e-15 -4.4139062980501586e-32 1.5902773407317584e-15 0.0 0.0 0.0 -21.066082583880757 0.8109394324830723 -10.535493295160073 0.0 0.0 0.0 66.74334367110006 -50.923565045256055 32.86475923363558 75.7900167852236 3.907098028611466e-15 5.0197905655453776e-15 -3.975693351829396e-16 0.0 0.0 0.0 0.0 0.0 -0.0031717773723192195 -0.013645624139228214 -0.9347208109415652 -0.4141223139353259 22.84783128706266 -0.4779143014398226 0.0 0.0 -7.951386703658791e-16
0.0 0.0 821.7663820892717 35.04137077658673 -5.657341133140491 5.249715395348697 0.0 0.0 0.0 0.014326128129271497 -7.328915934021203 -1.5493033612629272 -0.833786437004686 26.98699106428821 2.2515966695580802 -2.758691436281349e-33 -3.975693351829395e-16 -7.95138670365879e-16 0.0 0.0 0.0 0.00905789868296526 -6.090147539142944 9.025919384937486 5.23990823626824 3.3926513533872446e-15 -4.135096842958134e-15 0.0 0.0 0.0 5.704837568073553 9.895354983429355 67.34987177906292 -17.659390972849103 7.735102296142079e-15 2.00623739483906e-15 3.1805546814635168e-15 4.4139062980501586e-32 1.5902773407317584e-15 0.0 0.0 0.0 -21.230264657557516 0.8434332892052214 -10.577115197377779 0.0 0.0 0.0 65.55837849133594 -49.69154927082274 32.01204494511707 76.67027691632234 0.0 0.0 7.951386703658792e-16 0.0 0.0 0.0 0.0 0.0 -0.003125216270623149 -0.026008933300058986 -1.0343576440243518 -0.4677043367929586 22.71053029883383 -0.34115259061129816 -2.2069531490250793e-32 -1.5902773407317582e-15 -1.5902773407317582e-15
0.0 0.0 821.7663820892717 35.11408339263535 -5.637655993973252 5.219506510904307 0.0 0.0 0.0 0.026727881626600662 -7.364120597918384 -1.537034508663938 -0.8730430736142522 26.8915859030125 2.2171333873859074 0.0 0.0 -3.975693351829396e-16 0.0 0.0 0.0 0.01933193962827964 -6.1146503360361955 9.072472862974536 5.26995063047097 2.346339153301808e-15 -9.039621832771215e-16 0.0 0.0 1.5902773407317584e-15 5.679501021570594 9.966819253211135 67.30126935941928 -17.766357983128874 -8.617735382439669e-15 1.3944137712691854e-14 1.5902773407317584e-15 1.1034765745125397e-32 7.951386703658792e-16 0.0 0.0 1.5902773407317584e-15 -21.39581650836343 0.8011688320074891 -10.65644306816956 0.0 0.0 1.5902773407317584e-15 64.41010683987074 -48.38320382935448 31.264573438135383 77.49584628614419 2.84009002796169e-15 -1.0435483078355689e-14 7.951386703658792e-16 0.0 0.0 0.0 0.0 0.0 -0.0031050366086045156 -0.017775639666918006 -1.0537034297362031 -0.5120720707390142 22.562134890410668 -0.28463263112368453 0.0 0.0 0.0
0.0 0.0 821.7663820892717 35.20538366273342 -5.640324162827878 5.257601628325821 0.0 0.0 0.0 0.025547999603296977 -7.469487294488891 -1.5776376373756085 -0.8899872823100005 26.949711468537437 2.1853293588831266 0.0 0.0 -7.951386703658792e-16 0.0 0.0 0.0 0.017979082525824395 -6.076511112111656 8.977916323853634 5.233338507635052 3.935247056509169e-15 -9.758143968642755e-16 0.0 1.5902773407317588e-15 0.0 5.451774659133787 9.999920887309049 67.37828952080449 -17.896259715186474 -8.262508822676508e-15 1.1577975193909457e-14 -1.5902773407317584e-15 3.310429723537619e-32 -2.3854160110976376e-15 0.0 1.5902773407317588e-15 0.0 -21.661485902171094 0.7828622291585143 -10.706857645495228 0.0 1.5902773407317588e-15 0.0 63.66428527418367 -47.02801611573233 30.814714557158837 78.24282355355633 6.208184733121564e-16 7.69439557599729e-15 1.1927080055488188e-15 0.0 0.0 0.0 0.0 0.0 -0.002856059399077639 -0.10316484609276896 -1.1106851753521851 -0.5309680435844198 22.562699480762564 -0.2188485200888473 -6.3611093629270335e-15 -1.5902773407317584e-15 -8.827812596100317e-32
0.0 0.0 821.7663820892717 35.32689030074547 -5.657652558304281 5.273047845052236 0.0 1.987846675914698e-16 0.0 0.033307906056230525 -7.589473675765308 -1.5453377605512109 -0.9044698094741409 27.018149580413308 2.087713456116216 0.0 0.0 3.975693351829396e-16 0.0 1.987846675914698e-16 0.0 0.023937096255665674 -6.103026705606919 8.93110270075473 5.245623274311733 -3.971528534261457e-16 1.8193056182920634e-17 0.0 0.0 0.0 5.152913941359051 10.12286793671424 67.37768582228378 -18.060653225182744 7.530293565203501e-15 -6.8544103801927795e-15 -3.1805546814635168e-15 0.0 0.0 0.0 0.0 0.0 -21.905631350859828 0.8669993115608544 -10.582851232834289 0.0 0.0 0.0 62.596204347111644 -45.51130035840589 30.017495759378615 79.33943729762703 -9.816238188044278e-15 -2.4915174733643366e-14 -5.963540027744094e-16 0.0 0.0 0.0 1.987846675914698e-16 0.0 -0.0030296197643337667 -0.05099682299159446 -1.1394790965054729 -0.5619045975461489 22.42284534374305 -0.2362990069564923 0.0 0.0 0.0
0.0 0.0 821.7663820892717 35.42478527357192 -5.689269313371649 5.283959378993284 -6.3611093629270335e-15 2.2069531490250793e-32 -3.975693351829396e-16 0.033132321653764174 -7.615975269003234 -1.5512515311418036 -0.9070599111101703 27.03993239788223 2.1257866869902746 -6.3611093629270335e-15 6.620859447075238e-32 -1.1927080055488188e-15 -6.3611093629270335e-15 2.2069531490250793e-32 -3.975693351829396e-16 0.023963359076582143 -6.177740142976399 8.927637069519397 5.265076946552363 -5.016863039390548e-15 3.41458429632737e-15 1.1034765745125397e-32 1.5902773407317584e-15 -7.951386703658792e-16 4.593276163829772 10.347158738983854 67.3768488190843 -18.126616517782587 -1.7535668954541492e-15 1.099295784331797e-14 0.0 0.0 -7.951386703658792e-16 1.1034765745125397e-32 1.5902773407317584e-15 -7.951386703658792e-16 -22.099084014291474 1.1231871764455459 -10.540674196310812 1.1034765745125397e-32 1.5902773407317584e-15 -7.951386703658792e-16 61.82849681599683 -44.40168387446472 29.26389706890427 80.31417773418718 -3.7965925343222156e-16 8.643367362020493e-15 7.951386703658792e-16 0.0 0.0 -6.3611093629270335e-15 2.2069531490250793e-32 -3.975693351829396e-16 -0.003059807797960933 -0.057367086839507045 -1.1598995178853206 -0.5701140067305215 22.45116734396332 -0.30477999781582765 0.0 0.0 7.951386703658792e-16
